<svg xmlns="http://www.w3.org/2000/svg" width="16" height="16" viewBox="0 0 16 16" fill="white" stroke="#000000" stroke-width="1.4" stroke-linecap="round" stroke-linejoin="round">
  <path d="M5.21 7.25a.23.23 0 1 1-.45 0 .23.23 0 0 1 .45 0zm0 0H5m2.5 0a.23.23 0 1 1-.45 0 .23.23 0 0 1 .45 0zm0 0H7.25m2.5 0a.23.23 0 1 1-.45 0 .23.23 0 0 1 .45 0zm0 0h-.23M12.7 7.25c0 2.75-2.43 5-5.44 5a5.9 5.9 0 0 1-1.54-.2A3.6 3.6 0 0 1 3.27 12.67a3.6 3.6 0 0 1-.29-.04 2.7 2.7 0 0 0 .59-1.22c.05-.28-.08-.54-.28-.74C2.37 9.77 1.81 8.57 1.81 7.25c0-2.75 2.43-5 5.44-5s5.44 2.23 5.44 5z"/>
</svg>
